<?xml version="1.0" encoding="UTF-8"?><svg xmlns="http://www.w3.org/2000/svg" xmlns:xlink="http://www.w3.org/1999/xlink" viewBox="0 0 730 115.6"><defs><clipPath id="clippath"><rect width="730" height="115.6" style="fill:none;"/></clipPath></defs><g style="isolation:isolate;"><g id="Ebene_2"><g id="Ebene_1-2"><g><g style="mix-blend-mode:multiply;"><g style="clip-path:url(#clippath);"><rect x="1" y="1" width="728" height="113.6" style="fill:#0069b4;"/></g></g><g><path d="M590.26,62.83v-14.88c.01-1.06,.85-1.89,1.89-1.89s1.88,.83,1.89,1.87v14.89c0,1.06-.85,1.9-1.89,1.9s-1.89-.85-1.89-1.89" style="fill:#fff;"/><path d="M593.88,41.11c-.3,.66-.97,1.11-1.73,1.11s-1.44-.46-1.73-1.13c-.1-.23-3.66-7.39-3.66-7.39-.19-.3-.31-.65-.31-1.03,0-1.04,.85-1.89,1.89-1.89h8.01c1.04,0,1.88,.85,1.88,1.89,0,.39-.11,.74-.31,1.04-.34,.51-3.93,7.15-4.04,7.39" style="fill:#fff;"/><path d="M535.37,60.94c.52,0,.95-.42,.95-.94v-1.88c0-.46-.33-.85-.77-.93h-35.92c-1.04,0-1.89-.85-1.89-1.89v-7.34c.01-1.06,.86-1.89,1.89-1.89h38.58c1.05,0,1.89,.85,1.89,1.89s-.85,1.89-1.89,1.89h-35.86c-.4,0-.81,.42-.84,.88v1.83c0,.52,.34,.84,.83,.84h35.87c1.04,0,1.88,.83,1.89,1.86v7.56c0,1.06-.85,1.91-1.89,1.91h-38.58c-1.04,0-1.89-.85-1.89-1.89s.85-1.89,1.89-1.89h35.75Z" style="fill:#fff;"/><path d="M586.46,62.82c0,1.04-.84,1.89-1.88,1.89h-35.97c-.52,0-.94,.42-.94,.94v5.79c0,1.07-.85,1.92-1.89,1.92s-1.89-.84-1.89-1.89v-23.53c.01-1.06,.85-1.89,1.89-1.89h38.74c1.08,0,1.92,.83,1.93,1.86v14.9Zm-3.77-2.83v-9.21c0-.52-.42-.94-.95-.94h-33.13c-.52,0-.94,.42-.94,.94v9.21c0,.52,.42,.94,.94,.94h33.13c.52,0,.95-.42,.95-.94" style="fill:#fff;"/><path d="M635.69,53.4c.52,0,.95-.42,.95-.94v-1.67c0-.52-.42-.95-.94-.95h-32.74c-.52,0-.95,.42-.95,.95v1.67c0,.52,.43,.94,.95,.94h32.73Zm-32.73,3.77c-.52,0-.95,.42-.95,.94v1.88c0,.52,.43,.94,.95,.94h35.56c1.04,0,1.89,.85,1.89,1.89s-.85,1.89-1.89,1.89c-.05,0-.09,0-.14,0h-38.12s-.09,0-.14,0c-1.04,0-1.89-.85-1.89-1.89v-14.88c.01-1.06,.86-1.89,1.89-1.89h38.35c1.09,0,1.94,.83,1.96,1.86v7.33c-.01,1.08-.86,1.92-1.9,1.92h-35.57Z" style="fill:#fff;"/><path d="M678.77,35.2c0-2.1,1.71-3.82,3.82-3.82s3.82,1.71,3.82,3.82-1.71,3.82-3.82,3.82-3.82-1.71-3.82-3.82m-.6,0c0,2.44,1.97,4.41,4.41,4.41s4.41-1.97,4.41-4.41-1.97-4.41-4.41-4.41-4.41,1.97-4.41,4.41m3.35-2.1h1.29c.63,0,1.24,.18,1.24,.92s-.55,.96-1.24,.94h-1.29v-1.87Zm2.65,4.72h.72l-1.55-2.33c.7-.12,1.32-.54,1.32-1.46s-.53-1.46-1.71-1.46h-2.02v5.25h.6v-2.33h1.1l1.55,2.33Z" style="fill:#fff;"/><path d="M644.75,62.83v-14.88c.01-1.06,.85-1.89,1.89-1.89h38.47c1.04,0,1.89,.85,1.89,1.89s-.85,1.89-1.89,1.89h-35.63c-.52,0-.94,.42-.94,.95v12.04c0,1.04-.84,1.89-1.89,1.89s-1.89-.85-1.89-1.89" style="fill:#fff;"/></g><polygon points="499 83.32 503.6 83.32 503.6 82.28 499 82.28 499 79.61 504.23 79.61 504.23 78.57 497.73 78.57 497.73 87.28 499 87.28 499 83.32" style="fill:#fff;"/><path d="M513.7,83.7l1.5-3.83h.03l1.39,3.83h-2.91Zm3.37,1.04l.93,2.53h1.39l-3.4-8.7h-1.44l-3.53,8.7h1.31l.98-2.53h3.76Z" style="fill:#fff;"/><polygon points="534.03 82.17 529.14 82.17 529.14 78.57 527.87 78.57 527.87 87.28 529.14 87.28 529.14 83.21 534.03 83.21 534.03 87.28 535.3 87.28 535.3 78.57 534.03 78.57 534.03 82.17" style="fill:#fff;"/><path d="M546.03,79.58h3.16c.63,0,1.69,.11,1.69,1.45s-.98,1.5-1.91,1.5h-2.94v-2.96Zm0,3.96h3.07c1.52,0,1.67,.84,1.67,1.55,0,.33,.04,1.65,.22,2.18h1.56v-.19c-.39-.21-.46-.39-.47-.87l-.08-1.57c-.05-1.21-.59-1.43-1.12-1.64,.6-.33,1.31-.8,1.31-2.08,0-1.84-1.54-2.34-3.08-2.34h-4.34v8.7h1.27v-3.73Z" style="fill:#fff;"/><polygon points="568.04 86.23 562.26 86.23 568.04 79.59 568.04 78.57 561.09 78.57 561.09 79.61 566.4 79.61 560.66 86.29 560.66 87.27 568.04 87.27 568.04 86.23" style="fill:#fff;"/><polygon points="583.69 86.23 578.03 86.23 578.03 83.32 583.17 83.32 583.17 82.28 578.03 82.28 578.03 79.61 583.6 79.61 583.6 78.57 576.76 78.57 576.76 87.27 583.69 87.27 583.69 86.23" style="fill:#fff;"/><g><path d="M598.81,78.57v5.5c0,1.89-1.31,2.39-2.47,2.39s-2.38-.52-2.38-2.41v-5.48h-1.27v5.81c0,1.62,1.08,3.13,3.61,3.13s3.78-1.5,3.78-3.29v-5.65h-1.27Z" style="fill:#fff;"/><path d="M613.49,83.63h2.93c0,.93-.21,1.71-1.03,2.31-.69,.51-1.45,.56-1.92,.56-2.5,0-3.12-1.82-3.12-3.59,0-2.28,1.39-3.53,3.07-3.53,1.03,0,2.4,.31,2.81,1.83h1.23c-.27-1.95-2.22-2.87-3.97-2.87-3.06,0-4.44,2.39-4.44,4.51,0,.92,.04,2.41,1.48,3.67,.48,.44,1.27,.98,2.88,.98,1.28,0,2.46-.53,3.1-1.36l.3,1.13h.82v-4.65h-4.11v1.01Z" style="fill:#fff;"/></g><polygon points="632.05 80.06 632.08 80.06 634.22 87.27 635.55 87.27 638.02 78.57 636.62 78.57 634.87 85.65 634.85 85.65 632.74 78.57 631.36 78.57 629.25 85.65 629.23 85.65 627.48 78.57 626.1 78.57 628.55 87.27 629.88 87.27 632.05 80.06" style="fill:#fff;"/><polygon points="653.61 86.23 647.96 86.23 647.96 83.32 653.09 83.32 653.09 82.28 647.96 82.28 647.96 79.61 653.52 79.61 653.52 78.57 646.69 78.57 646.69 87.27 653.61 87.27 653.61 86.23" style="fill:#fff;"/><path d="M664.01,79.58h3.16c.63,0,1.69,.11,1.69,1.45s-.98,1.5-1.91,1.5h-2.94v-2.96Zm0,3.96h3.07c1.52,0,1.67,.84,1.67,1.55,0,.33,.04,1.65,.22,2.18h1.56v-.19c-.39-.21-.46-.39-.47-.87l-.08-1.57c-.05-1.21-.59-1.43-1.12-1.64,.6-.33,1.31-.8,1.31-2.08,0-1.84-1.54-2.34-3.08-2.34h-4.34v8.7h1.27v-3.73Z" style="fill:#fff;"/><polygon points="680.6 84.22 682.07 82.91 685.35 87.27 687 87.27 682.99 82.09 686.89 78.57 685.14 78.57 680.6 82.79 680.6 78.57 679.33 78.57 679.33 87.27 680.6 87.27 680.6 84.22" style="fill:#fff;"/></g></g></g></g></svg>