<?xml version="1.0" encoding="UTF-8"?><svg id="Ebene_2" xmlns="http://www.w3.org/2000/svg" viewBox="0 0 53.18 43.42"><g id="Ebene_1-2"><path d="M27.19,43.41v.02s3.67,0,3.67,0l-3.67-.02M53.18,0H30.87l15.78,21.4h0c.16,.21,.26,.46,.26,.73s-.09,.51-.24,.7v.02l-15.79,20.58h22.32V0" style="fill:#006ab3;"/><path d="M39.82,22.13c0-.27-.1-.52-.25-.72h0S23.78,0,23.78,0H15.39l15.78,21.4h0c.16,.21,.26,.46,.26,.73s-.09,.51-.24,.7h0s-15.76,20.55-15.76,20.55l8.36,.04,15.79-20.58h0c.15-.21,.24-.45,.24-.72" style="fill:#a269ae;"/><path d="M24.43,22.13c0-.27-.1-.52-.25-.72h0S8.39,0,8.39,0H0L15.78,21.4h0c.16,.21,.26,.46,.26,.73s-.09,.51-.24,.7h0S.03,43.39,.03,43.39l8.36,.04,15.79-20.58h0c.15-.21,.24-.45,.24-.72" style="fill:#a269ae;"/></g></svg>