<?xml version="1.0" encoding="UTF-8"?><svg id="Ebene_2" xmlns="http://www.w3.org/2000/svg" xmlns:xlink="http://www.w3.org/1999/xlink" viewBox="0 0 729 135.27"><defs><clipPath id="clippath"><path d="M47.58,0l48.8,66.18v.04c.49,.61,.79,1.37,.79,2.21s-.29,1.57-.75,2.17v.05l-48.75,63.51,25.86,.12,48.84-63.63v-.05c.46-.6,.75-1.35,.75-2.17s-.3-1.6-.79-2.21v-.04L73.53,0h-25.95Z" style="fill:none;"/></clipPath><clipPath id="clippath-1"><path d="M0,0L48.8,66.18v.04c.49,.61,.79,1.37,.79,2.21s-.29,1.57-.75,2.17v.05S.09,134.15,.09,134.15l25.86,.12,48.84-63.63v-.05c.46-.6,.75-1.35,.75-2.17s-.3-1.6-.79-2.21v-.04L25.95,0H0Z" style="fill:none;"/></clipPath><linearGradient id="Unbenannter_Verlauf" x1="-36" y1="1205.29" x2="-35" y2="1205.29" gradientTransform="translate(23905.33 798680.51) scale(662.21 -662.21)" gradientUnits="userSpaceOnUse"><stop offset="0" stop-color="#fff"/><stop offset="1" stop-color="#000"/></linearGradient><mask id="mask" x="-36" y="-158.89" width="800" height="1364.77" maskUnits="userSpaceOnUse"><rect x="-36" y="-158.89" width="800" height="1364.77" style="fill:url(#Unbenannter_Verlauf);"/></mask><clipPath id="clippath-2"><rect x="64.79" y="125.5" width="664.21" height="9.77" style="fill:none;"/></clipPath></defs><g id="Ebene_1-2"><g><g><path d="M629.15,93.51h1.5v-2.24h-1.5v2.24Zm-5.19,0h1.32v-7.3c0-2.27,1.36-3.32,2.82-3.32,.2,0,.42,.02,.64,.07v-1.32c-.15-.04-.31-.07-.46-.07-1.36,0-2.44,.79-2.95,2.09h-.04v-1.83h-1.32v11.68Zm-8.18-6.89c.04-2.9,.86-3.96,2.49-3.96s2.44,1.06,2.49,3.96h-4.97Zm4.95,3.01c-.22,2.05-1.08,3.04-2.46,3.04-1.3,0-2.49-1.03-2.49-4.4v-.55h6.38v-.48c0-3.89-1.17-5.68-3.76-5.68s-4.03,2.05-4.03,6.09c0,4.4,1.45,6.12,3.92,6.12,2.2,0,3.56-1.65,3.76-4.14h-1.32Zm-11.5,3.87h1.5l3.08-11.68h-1.41l-2.38,10.19h-.04l-2.6-10.19h-1.41l3.26,11.68Zm-10.4-5.85c0-3.72,1.14-4.99,2.62-4.99s2.62,1.28,2.62,4.99-1.14,5.02-2.62,5.02-2.62-1.28-2.62-5.02m-1.41,0c0,4.07,1.45,6.12,4.03,6.12s4.03-2.05,4.03-6.12-1.45-6.09-4.03-6.09-4.03,2.05-4.03,6.09m-8.95,5.85h1.32v-7.85c0-1.8,1.03-2.99,2.57-2.99,1.34,0,2,.79,2,2.4v8.45h1.32v-8.82c0-2.2-1.21-3.12-2.99-3.12-1.19,0-2.33,.59-2.99,1.89h-.04v-1.63h-1.19v11.68Zm-9.44,0h1.32v-7.85c0-1.8,1.03-2.99,2.57-2.99,1.34,0,2,.79,2,2.4v8.45h1.32v-8.82c0-2.2-1.21-3.12-2.99-3.12-1.19,0-2.33,.59-2.99,1.89h-.04v-1.63h-1.19v11.68Zm-3.8-4.14c0,2.09-1.1,3.3-2.71,3.3-1.14,0-1.85-.92-1.85-2.29s.68-2.07,2-2.42l1.1-.29c.53-.13,1.28-.37,1.41-.77h.04v2.46Zm-4.27-4.07c0-1.69,.68-2.64,2.24-2.64,1.19,0,2.02,.53,2.02,2.02,0,1.36-.2,1.58-1.12,1.85l-2.49,.7c-1.65,.46-2.35,1.69-2.35,3.23,0,2.02,.92,3.3,2.97,3.3,1.3,0,2.49-.44,3.01-1.98h.04v.4c0,1.21,.66,1.45,1.69,1.45,.18,0,.37-.04,.62-.13v-.97h-.37c-.46,0-.68-.31-.68-.97v-6.91c0-1.85-.88-3.1-3.3-3.1s-3.61,1.34-3.61,3.74h1.32Zm-5.02,8.21h1.41v-15.71h-1.41v6.69h-6.14v-6.69h-1.41v15.71h1.41v-7.83h6.14v7.83Zm-22.55,0h1.32v-7.85c0-1.8,1.03-2.99,2.57-2.99,1.34,0,2,.79,2,2.4v8.45h1.32v-8.82c0-2.2-1.21-3.12-2.99-3.12-1.19,0-2.33,.59-2.99,1.89h-.04v-1.63h-1.19v11.68Zm-3.57-13.46h1.32v-2.24h-1.32v2.24Zm0,13.46h1.32v-11.68h-1.32v11.68Zm-13.82-10.38c0-1.19,0-2.86,1.41-2.86,1.06,0,1.3,.81,1.3,2.05,0,1.17-.04,1.8-2.71,4.18-1.3,1.17-3.52,3.34-3.52,7.02h9.94v-2.86h-5.52c.37-.88,1.52-1.85,3.04-3.3,1.94-1.85,2.46-2.73,2.46-5.06s-1.03-4.36-4.82-4.36c-3.34,0-5.02,1.56-5.02,4.69v.51h3.43Zm-11.42,0c0-1.19,0-2.86,1.41-2.86,1.06,0,1.3,.81,1.3,2.05,0,1.17-.04,1.8-2.71,4.18-1.3,1.17-3.52,3.34-3.52,7.02h9.94v-2.86h-5.52c.37-.88,1.52-1.85,3.04-3.3,1.94-1.85,2.46-2.73,2.46-5.06s-1.03-4.36-4.82-4.36c-3.34,0-5.02,1.56-5.02,4.69v.51h3.43Zm-4.84,2.75c0-5.02-.46-7.94-5.13-7.94s-5.1,3.48-5.13,7.94c0,5.02,.46,7.94,5.13,7.94s5.1-3.48,5.13-7.94m-6.56,.02c0-4.44,.18-5.63,1.43-5.63s1.43,1.19,1.43,5.63-.18,5.59-1.43,5.59-1.43-1.19-1.43-5.59m-11.45-2.77c0-1.19,0-2.86,1.41-2.86,1.06,0,1.3,.81,1.3,2.05,0,1.17-.04,1.8-2.71,4.18-1.3,1.17-3.52,3.34-3.52,7.02h9.94v-2.86h-5.52c.37-.88,1.52-1.85,3.04-3.3,1.94-1.85,2.46-2.73,2.46-5.06s-1.03-4.36-4.82-4.36c-3.34,0-5.02,1.56-5.02,4.69v.51h3.43Zm-8.84,10.38h3.43v-3.96h-3.43v3.96Zm-6.67-7.79c-1.17,0-1.39-.86-1.39-2.75,0-1.69,.31-2.71,1.36-2.71s1.36,1.14,1.36,2.97c0,1.41-.24,2.49-1.34,2.49m-4.77,4.14c.04,2.79,1.74,3.96,4.53,3.96,5.04,0,5.41-3.1,5.41-8.29,0-4.66-.55-7.59-5.15-7.59-4.11,0-5.1,2.57-5.1,5.68,0,3.5,1.36,4.84,3.74,4.84,1.32,0,2.29-.42,2.77-1.36h.04c0,3.43-.33,4.4-1.56,4.4-.42,0-.73-.18-.9-.48-.18-.31-.22-.73-.22-1.14h-3.56Zm-1.62-3.98c0-5.02-.46-7.94-5.13-7.94s-5.1,3.48-5.13,7.94c0,5.02,.46,7.94,5.13,7.94s5.1-3.48,5.13-7.94m-6.56,.02c0-4.44,.18-5.63,1.43-5.63s1.43,1.19,1.43,5.63-.18,5.59-1.43,5.59-1.43-1.19-1.43-5.59m-8.65,7.61h3.43v-3.96h-3.43v3.96Zm-11.74-4.58v.57c0,2.73,1.61,4.31,4.91,4.31,3.48,0,5.1-1.61,5.1-5.57s-1.25-5.41-4.09-5.41c-.99,0-2.18,.44-2.57,1.23l-.04-.04,.18-2.93h5.9v-2.86h-8.73l-.48,8.43h3.43c.11-.9,.7-1.23,1.36-1.23,.97,0,1.36,.88,1.36,2.71,0,2.13-.24,3.34-1.43,3.34-1.08,0-1.32-.95-1.32-1.98v-.57h-3.56Zm-7.81-5.81c0-1.19,0-2.86,1.41-2.86,1.06,0,1.3,.81,1.3,2.05,0,1.17-.04,1.8-2.71,4.18-1.3,1.17-3.52,3.34-3.52,7.02h9.94v-2.86h-5.52c.37-.88,1.52-1.85,3.04-3.3,1.94-1.85,2.46-2.73,2.46-5.06s-1.03-4.36-4.82-4.36c-3.34,0-5.02,1.56-5.02,4.69v.51h3.43Zm-10.93,5.52h6.64v-2.99h-6.64v2.99Zm-5.01,4.86h3.43v-3.96h-3.43v3.96Zm-1.5-7.63c0-5.02-.46-7.94-5.13-7.94s-5.1,3.48-5.13,7.94c0,5.02,.46,7.94,5.13,7.94s5.1-3.48,5.13-7.94m-6.56,.02c0-4.44,.18-5.63,1.43-5.63s1.43,1.19,1.43,5.63-.18,5.59-1.43,5.59-1.43-1.19-1.43-5.59m-11.45-2.77c0-1.19,0-2.86,1.41-2.86,1.06,0,1.3,.81,1.3,2.05,0,1.17-.04,1.8-2.71,4.18-1.3,1.17-3.52,3.34-3.52,7.02h9.94v-2.86h-5.52c.37-.88,1.52-1.85,3.04-3.3,1.94-1.85,2.46-2.73,2.46-5.06s-1.03-4.36-4.82-4.36c-3.34,0-5.02,1.56-5.02,4.69v.51h3.43Zm-26.4,10.38h3.56v-7.79c0-1.17,.59-1.69,1.28-1.69s1.03,.51,1.03,1.36v8.12h3.56v-7.79c0-1.17,.59-1.69,1.28-1.69s1.03,.51,1.03,1.36v8.12h3.56v-8.91c0-2.29-1.08-3.3-3.1-3.3-1.32,0-2.11,.44-2.95,1.83-.53-1.63-1.89-1.83-2.93-1.83-1.32,0-2.35,.66-2.86,1.72h-.04v-1.41h-3.43v11.9Zm-6.45,.31c4.11,0,4.91-2.73,4.91-6.29s-.55-6.23-4.91-6.23c-4.11,0-4.91,2.73-4.91,6.29s.55,6.23,4.91,6.23m1.34-6.25c0,2.93-.22,3.92-1.32,3.92s-1.36-1.03-1.36-3.94,.31-3.92,1.36-3.92,1.32,.99,1.32,3.94m-13.91,5.94h4.22l2.95-11.9h-3.56l-1.41,8.78h-.04l-1.39-8.78h-3.7l2.93,11.9Zm-19.32,0h3.57v-7.79c0-1.17,.59-1.69,1.28-1.69s1.03,.51,1.03,1.36v8.12h3.56v-8.91c0-2.29-1.08-3.3-3.1-3.3-1.32,0-2.35,.66-2.86,1.72h-.04v-1.41h-3.43v11.9Zm-6.39,.31c4.11,0,4.91-2.73,4.91-6.29s-.55-6.23-4.91-6.23c-4.11,0-4.91,2.73-4.91,6.29s.55,6.23,4.91,6.23m1.34-6.25c0,2.93-.22,3.92-1.32,3.92s-1.36-1.03-1.36-3.94,.31-3.92,1.36-3.92,1.32,.99,1.32,3.94m-11.33-7.22h3.56v-2.73h-3.56v2.73Zm0,13.16h3.56v-11.9h-3.56v11.9Zm-6.53-3.08c0,2.77,.7,3.21,3.17,3.21,.68,0,1.36-.04,2.05-.13v-2.38c-.15,.02-.35,.04-.51,.04-.84,0-1.14-.26-1.14-1.1v-6.01h1.65v-2.46h-1.65v-3.5h-3.56v3.5h-1.47v2.46h1.47v6.36Zm-8.38-.59c0-.66,.18-1.03,.55-1.32,.33-.26,.81-.29,1.94-.88,0,.48-.02,1.1-.02,2.09,0,1.19-.68,1.63-1.43,1.63-.66,0-1.03-.57-1.03-1.52m.07-4.58c.02-1.03,.31-1.63,1.3-1.63,.79,0,1.12,.46,1.12,1.19,0,.9-.2,1.08-1.28,1.36-.99,.26-2.31,.48-3.19,.97-.88,.48-1.45,1.65-1.45,3.04,0,2.57,1.17,3.63,3.17,3.63,1.19,0,2.31-.62,2.79-1.67h.04c.02,.46,.07,.95,.2,1.36h3.43c-.42-.53-.42-1.67-.42-2.57v-6.12c0-2.51-1.3-3.52-4.22-3.52-1.47,0-2.49,.2-3.32,.77-.84,.57-1.32,1.56-1.34,3.19h3.17Zm-9.66,5.17c0,2.77,.7,3.21,3.17,3.21,.68,0,1.36-.04,2.05-.13v-2.38c-.15,.02-.35,.04-.51,.04-.84,0-1.14-.26-1.14-1.1v-6.01h1.65v-2.46h-1.65v-3.5h-3.56v3.5h-1.47v2.46h1.47v6.36Zm-9.04,3.08h3.56v-6.75c0-1.56,.92-2.16,2.35-2.16,.35,0,.64,.02,.99,.09v-3.34c-.22-.04-.4-.04-.57-.04-1.5,0-2.4,.92-2.86,1.98h-.04v-1.67h-3.43v11.9Zm-6.39,.31c4.11,0,4.91-2.73,4.91-6.29s-.55-6.23-4.91-6.23c-4.11,0-4.91,2.73-4.91,6.29s.55,6.23,4.91,6.23m1.34-6.25c0,2.93-.22,3.92-1.32,3.92s-1.36-1.03-1.36-3.94,.31-3.92,1.36-3.92,1.32,.99,1.32,3.94m-13.7-.09c0-2.31,.22-3.59,1.28-3.59,1.34,0,1.39,1.83,1.39,3.74,0,2.16-.07,3.59-1.36,3.59-1.21,0-1.3-1.63-1.3-3.74m-3.5,9.9h3.56v-5.17h.04c.59,1.28,1.67,1.61,2.66,1.61,2.93,0,3.45-2.66,3.45-6.36,0-4.44-1.28-6.16-3.67-6.16-1.58,0-2.31,.95-2.57,1.76h-.04v-1.45h-3.43v15.77Zm-10.49-7.66v.53c0,2.38,1.34,3.56,4.53,3.56,2.95,0,4.55-1.5,4.55-3.89,0-4.62-5.7-3.21-5.7-5.32,0-.64,.26-1.1,1.21-1.1,.75,0,1.17,.29,1.17,1.32v.22h3.17v-.4c0-1.72-.97-3.34-4.31-3.34-2.86,0-4.53,1.21-4.53,3.59,0,2.51,1.41,3.08,4.33,4.07,1.1,.37,1.36,.9,1.36,1.45,0,.68-.44,1.21-1.28,1.21-.57,0-.9-.22-1.1-.55-.18-.35-.22-.81-.24-1.34h-3.17Zm-10.84,3.78h3.56v-7.79c0-1.17,.59-1.69,1.28-1.69s1.03,.51,1.03,1.36v8.12h3.56v-8.91c0-2.29-1.08-3.3-3.1-3.3-1.32,0-2.35,.66-2.86,1.72h-.04v-1.41h-3.43v11.9Zm-7.72-3.67c0-.66,.18-1.03,.55-1.32,.33-.26,.81-.29,1.94-.88,0,.48-.02,1.1-.02,2.09,0,1.19-.68,1.63-1.43,1.63-.66,0-1.03-.57-1.03-1.52m.07-4.58c.02-1.03,.31-1.63,1.3-1.63,.79,0,1.12,.46,1.12,1.19,0,.9-.2,1.08-1.28,1.36-.99,.26-2.31,.48-3.19,.97-.88,.48-1.45,1.65-1.45,3.04,0,2.57,1.17,3.63,3.17,3.63,1.19,0,2.31-.62,2.79-1.67h.04c.02,.46,.07,.95,.2,1.36h3.43c-.42-.53-.42-1.67-.42-2.57v-6.12c0-2.51-1.3-3.52-4.22-3.52-1.47,0-2.49,.2-3.32,.77-.84,.57-1.32,1.56-1.34,3.19h3.17Zm-11.18,8.25h3.56v-6.75c0-1.56,.92-2.16,2.35-2.16,.35,0,.64,.02,.99,.09v-3.34c-.22-.04-.4-.04-.57-.04-1.5,0-2.4,.92-2.86,1.98h-.04v-1.67h-3.43v11.9Zm-6.9,0h3.7v-12.72h3.3v-2.99h-10.3v2.99h3.3v12.72Zm-21.74,0h3.83l.55-2.99h3.76l.57,2.99h3.83l-3.92-15.71h-4.62l-4,15.71Zm7.59-5.85h-2.68l1.3-7h.04l1.34,7Zm-20.92,5.85h3.83l.55-2.99h3.76l.57,2.99h3.83l-3.92-15.71h-4.62l-4,15.71Zm7.59-5.85h-2.68l1.3-7h.04l1.34,7Zm-12.62,5.85h3.7v-15.71h-3.7v15.71Zm-11.33,0h1.32v-7.3c0-2.27,1.36-3.32,2.82-3.32,.2,0,.42,.02,.64,.07v-1.32c-.15-.04-.31-.07-.46-.07-1.36,0-2.44,.79-2.95,2.09h-.04v-1.83h-1.32v11.68Zm-9.44-2.86c0,2.2,1.21,3.12,2.99,3.12,1.19,0,2.33-.59,2.99-1.89h.04v1.63h1.19v-11.68h-1.32v7.85c0,1.8-1.06,2.99-2.55,2.99-1.39,0-2.02-.73-2.02-2.62v-8.23h-1.32v8.82Zm-8.38,2.86h6.95v-1.1h-5.54l5.54-9.48v-1.1h-6.67v1.1h5.26l-5.54,9.48v1.1Z"/><path d="M682.94,44.87c0-2.88-.32-8.2-8.02-8.2-8.45,0-9.02,5.4-9.02,13.7s1.07,12.64,7.42,12.64c2.31,0,4.54-.64,5.47-2.91h.07l.14,2.41h4.08v-13.6h-8.34v3.98h2.81v.82c0,3.48-.71,5.32-2.73,5.32-2.38,0-2.73-2.24-2.73-9.16s.28-9.23,2.73-9.23c2.2,0,2.38,2.59,2.38,4.23h5.75Zm-37.29,17.64h5.33v-17.47h.07l5.22,17.47h6.74v-25.35h-5.54v16.47h-.07l-4.9-16.47h-6.85v25.35Zm-3.21-25.35h-5.96v18.71c0,1.99-.78,3.16-2.38,3.16s-2.38-1.17-2.38-3.16v-18.71h-5.96v16.97c0,4.97,1.42,8.88,8.34,8.88s8.34-3.9,8.34-8.88v-16.97Zm-36.28,25.35h5.96v-10.47h2.27c1.88,0,2.48,.92,2.48,5.33,0,2.88,.18,4.29,.64,5.15h6.43v-.32c-.85-.35-1.03-.85-1.14-5.86-.07-3.41-.28-5.79-4.08-6.32v-.07c2.77-.67,4.26-2.48,4.26-6.18,0-3.48-1.74-6.6-6.82-6.6h-10.01v25.35Zm5.96-21.16h1.81c2.38,0,3.09,1.28,3.09,3.19,0,1.49-.64,3.3-3.05,3.3h-1.85v-6.5Zm-23.56,21.16h15.05v-4.83h-9.09v-5.79h8.17v-4.83h-8.17v-5.08h8.7v-4.83h-14.66v25.35Zm-14.09-20.94h1.67c3.16,0,3.66,1.67,3.66,7.85,0,7.6-.96,8.7-3.73,8.7h-1.6v-16.54Zm-5.96,20.94h8.24c7.85,0,9.02-4.3,9.02-13.49s-2.52-11.86-8.41-11.86h-8.84v25.35Zm-20.11,0h5.96v-10.47h2.27c1.88,0,2.48,.92,2.48,5.33,0,2.88,.18,4.29,.64,5.15h6.42v-.32c-.85-.35-1.03-.85-1.14-5.86-.07-3.41-.28-5.79-4.08-6.32v-.07c2.77-.67,4.26-2.48,4.26-6.18,0-3.48-1.74-6.6-6.82-6.6h-10.01v25.35Zm5.96-21.16h1.81c2.38,0,3.09,1.28,3.09,3.19,0,1.49-.64,3.3-3.05,3.3h-1.85v-6.5Zm-8.85,8.48c0-7.03-.46-13.17-8.91-13.17-7.85,0-8.91,5.11-8.91,13.17s1.07,13.17,8.91,13.17c8.45,0,8.91-6.14,8.91-13.17m-11.64,0c0-6.96,.36-9.2,2.7-9.2s2.77,2.24,2.77,9.2-.35,9.19-2.77,9.19-2.7-2.24-2.7-9.19m-22.53,12.67h5.96v-10.61h8.17v-4.83h-8.17v-5.08h8.7v-4.83h-14.66v25.35Zm-20.74,0h5.32v-17.47h.07l5.22,17.47h6.74v-25.35h-5.54v16.47h-.07l-4.9-16.47h-6.85v25.35Zm-22.26,0h6.18l.89-4.83h6.07l.92,4.83h6.18l-6.32-25.35h-7.46l-6.46,25.35Zm12.25-9.44h-4.33l2.09-11.29h.07l2.16,11.29Zm-22.08,9.44h5.96v-20.52h5.33v-4.83h-16.61v4.83h5.33v20.52Zm-21.77,0h15.05v-4.83h-9.09v-5.79h8.16v-4.83h-8.16v-5.08h8.7v-4.83h-14.66v25.35Zm-20.68,0h5.96v-7.1l1.6-2.45,4.58,9.55h6.71l-7.45-14.41,6.64-10.93h-6.43l-5.57,10.01h-.07v-10.01h-5.96v25.35Zm-2.66-16.54v-1.07c0-5.96-2.88-8.24-8.13-8.24-8.45,0-8.8,6.5-8.8,12.99,0,7.63,.6,13.35,8.24,13.35s8.91-4.08,8.91-9.55v-.89h-5.75c-.04,3.94-.28,6.46-2.49,6.46-2.49,0-2.73-1.95-2.73-9.48,0-6.64,.21-8.91,2.59-8.91,1.99,0,2.41,1.63,2.41,5.33h5.75Zm-25.82,16.54h5.96v-25.35h-5.96v25.35Zm-13.41,0h5.96v-20.52h5.32v-4.83h-16.61v4.83h5.32v20.52Zm-27.73,0h4.61v-6.67h6.67v-4.61h-6.67v-6.67h-4.61v6.67h-6.67v4.61h6.67v6.67Zm-18.99-17.64c0-2.88-.32-8.2-8.02-8.2-8.45,0-9.02,5.4-9.02,13.7s1.07,12.64,7.42,12.64c2.31,0,4.54-.64,5.47-2.91h.07l.14,2.41h4.08v-13.6h-8.34v3.98h2.8v.82c0,3.48-.71,5.32-2.73,5.32-2.38,0-2.73-2.24-2.73-9.16s.28-9.23,2.73-9.23c2.2,0,2.38,2.59,2.38,4.23h5.75Zm-37.29,17.64h5.33v-17.47h.07l5.22,17.47h6.74v-25.35h-5.54v16.47h-.07l-4.9-16.47h-6.85v25.35Zm-3.2-25.35h-5.96v18.71c0,1.99-.78,3.16-2.38,3.16s-2.38-1.17-2.38-3.16v-18.71h-5.96v16.97c0,4.97,1.42,8.88,8.34,8.88s8.34-3.9,8.34-8.88v-16.97Zm-30.57,4.4h1.67c3.16,0,3.66,1.67,3.66,7.85,0,7.6-.96,8.7-3.73,8.7h-1.6v-16.54Zm-5.96,20.94h8.24c7.85,0,9.02-4.3,9.02-13.49s-2.52-11.86-8.41-11.86h-8.84v25.35Zm-16.56,0h14.59v-4.83h-8.63v-20.52h-5.96v25.35Zm-17.6,0h15.05v-4.83h-9.09v-5.79h8.17v-4.83h-8.17v-5.08h8.7v-4.83h-14.66v25.35Zm-27.08,0h5.32v-19.74h.07l4.08,19.74h4.62l3.87-19.74h.07v19.74h5.54v-25.35h-8.63l-3.02,16.65h-.07l-3.12-16.65h-8.73v25.35Zm-20.83,0h5.32v-17.47h.07l5.22,17.47h6.75v-25.35h-5.54v16.47h-.07l-4.9-16.47h-6.85v25.35Zm-22.25,0h6.18l.89-4.83h6.07l.92,4.83h6.18l-6.32-25.35h-7.46l-6.46,25.35Zm12.25-9.44h-4.33l2.1-11.29h.07l2.16,11.29Z"/></g><path d="M123.12,68.43c0-.84-.3-1.6-.79-2.21v-.04S73.53,0,73.53,0h-25.95l48.8,66.18v.04c.49,.61,.79,1.37,.79,2.21s-.29,1.57-.75,2.17v.05l-48.75,63.51,25.86,.12,48.84-63.63v-.05c.46-.6,.75-1.35,.75-2.17" style="fill:#a169ad;"/><g style="clip-path:url(#clippath);"><path d="M123.12,68.43c0-.84-.3-1.6-.79-2.21v-.04S73.53,0,73.53,0h-25.95l48.8,66.18v.04c.49,.61,.79,1.37,.79,2.21s-.29,1.57-.75,2.17v.05l-48.75,63.51,25.86,.12,48.84-63.63v-.05c.46-.6,.75-1.35,.75-2.17" style="fill:#a169ad;"/></g><path d="M75.54,68.43c0-.84-.3-1.6-.79-2.21v-.04S25.95,0,25.95,0H0L48.8,66.18v.04c.49,.61,.79,1.37,.79,2.21s-.29,1.57-.75,2.17v.05L.09,134.15l25.86,.12,48.84-63.63v-.05c.46-.6,.75-1.35,.75-2.17" style="fill:#a169ad;"/><g style="clip-path:url(#clippath-1);"><path d="M75.54,68.43c0-.84-.3-1.6-.79-2.21v-.04S25.95,0,25.95,0H0L48.8,66.18v.04c.49,.61,.79,1.37,.79,2.21s-.29,1.57-.75,2.17v.05L.09,134.15l25.86,.12,48.84-63.63v-.05c.46-.6,.75-1.35,.75-2.17" style="fill:#a169ad;"/></g><rect x="62.74" width="665.26" height="7.77" style="fill:#a169ad;"/><g style="mask:url(#mask);"><g style="clip-path:url(#clippath-2);"><rect x="65.79" y="126.5" width="662.21" height="7.77" style="fill:#a169ad;"/></g></g></g></g></svg>